<svg xmlns="http://www.w3.org/2000/svg" viewBox="0 0 470 470" style="enable-background:new 0 0 470 470" xml:space="preserve"><path style="fill:#fff" d="M130 137.5c0-4.143 3.357-7.5 7.5-7.5s7.5 3.357 7.5 7.5V455h140v-82.5c0-4.143 3.357-7.5 7.5-7.5H375V15H145v92.5c0 4.143-3.357 7.5-7.5 7.5s-7.5-3.357-7.5-7.5V15H55v77.5h17.5C84.906 92.5 95 102.594 95 115s-10.094 22.5-22.5 22.5H55v75h17.5c12.406 0 22.5 10.094 22.5 22.5s-10.094 22.5-22.5 22.5H55v75h17.5c12.406 0 22.5 10.094 22.5 22.5s-10.094 22.5-22.5 22.5H55V455h75V137.5z"/><path style="fill:#98d9d5" d="M452.5 455h2.5V15h-2.5a7.499 7.499 0 0 1-7.5-7.5h-15v455h15c0-4.143 3.357-7.5 7.5-7.5z"/><path style="fill:#c1e8e6" d="M334.927 455H415V15h-2.5a7.499 7.499 0 0 1-7.5-7.5h-15v365c0 .251-.013.501-.038.749-.018.184-.05.364-.081.544-.011.061-.016.123-.028.184a7.257 7.257 0 0 1-.161.642c-.006.021-.01.045-.017.066a7.048 7.048 0 0 1-.226.631c-.008.02-.013.04-.021.059a7.265 7.265 0 0 1-.27.571c-.016.03-.029.063-.045.093-.091.17-.192.332-.295.493-.029.046-.054.094-.084.139-.099.148-.208.288-.317.429-.042.054-.078.11-.121.162-.12.146-.25.284-.381.421-.038.04-.071.083-.11.122L303.107 462.5h24.319a7.5 7.5 0 0 1 7.501-7.5z"/><path style="fill:#98d9d5" d="M300 380v64.394L364.394 380z"/><path style="fill:#f2484b" d="M137.5 130a7.499 7.499 0 0 0-7.5 7.5V455h15V137.5c0-4.143-3.357-7.5-7.5-7.5zM137.5 115c4.143 0 7.5-3.357 7.5-7.5V15h-15v92.5c0 4.143 3.357 7.5 7.5 7.5z"/><path style="fill:#082947" d="M422.5 0h-10c-4.143 0-7.5 3.357-7.5 7.5s3.357 7.5 7.5 7.5h2.5v440h-80.073c-4.143 0-7.5 3.357-7.5 7.5s3.357 7.5 7.5 7.5H422.5c4.143 0 7.5-3.357 7.5-7.5V7.5c0-4.143-3.357-7.5-7.5-7.5zM462.5 0h-10c-4.143 0-7.5 3.357-7.5 7.5s3.357 7.5 7.5 7.5h2.5v440h-2.5c-4.143 0-7.5 3.357-7.5 7.5s3.357 7.5 7.5 7.5h10c4.143 0 7.5-3.357 7.5-7.5V7.5c0-4.143-3.357-7.5-7.5-7.5z"/><path style="fill:#ffcc75" d="M47.403 362.5c.032 0 .064-.005.097-.005s.064.005.097.005H72.5c4.136 0 7.5-3.364 7.5-7.5s-3.364-7.5-7.5-7.5h-50c-4.136 0-7.5 3.364-7.5 7.5s3.364 7.5 7.5 7.5h24.903zM72.5 242.5c4.136 0 7.5-3.364 7.5-7.5s-3.364-7.5-7.5-7.5h-50c-4.136 0-7.5 3.364-7.5 7.5s3.364 7.5 7.5 7.5h50zM72.5 122.5c4.136 0 7.5-3.364 7.5-7.5s-3.364-7.5-7.5-7.5h-50c-4.136 0-7.5 3.364-7.5 7.5s3.364 7.5 7.5 7.5h50z"/><path style="fill:#082947" d="M387.914 377.682c.131-.137.261-.274.381-.421.043-.052.08-.108.121-.162.109-.141.218-.28.317-.429.03-.045.055-.093.084-.139.103-.161.204-.323.295-.493.016-.03.029-.063.045-.093.097-.187.189-.376.27-.571.008-.019.014-.039.021-.059.084-.206.16-.415.226-.631.007-.021.011-.045.017-.066.062-.211.118-.424.161-.642.012-.061.017-.123.028-.184.031-.18.063-.36.081-.544.025-.248.038-.498.038-.749V7.5c0-4.143-3.357-7.5-7.5-7.5h-335A7.499 7.499 0 0 0 40 7.5v85H22.5C10.094 92.5 0 102.594 0 115s10.094 22.5 22.5 22.5H40v75H22.5C10.094 212.5 0 222.594 0 235s10.094 22.5 22.5 22.5H40v75H22.5C10.094 332.5 0 342.594 0 355s10.094 22.5 22.5 22.5H40v85c0 4.143 3.357 7.5 7.5 7.5h245c.251 0 .501-.013.749-.038.189-.019.374-.051.558-.083.056-.01.113-.015.169-.025.218-.044.432-.1.643-.162.022-.006.044-.01.066-.017.214-.065.422-.142.627-.225.021-.009.042-.015.063-.023a7.61 7.61 0 0 0 .57-.269c.031-.017.063-.029.094-.046.171-.092.335-.193.498-.298.044-.028.09-.052.133-.081.149-.1.29-.209.431-.318.053-.041.109-.077.16-.12.146-.12.284-.25.421-.381.04-.038.083-.071.122-.11l90-90c.039-.039.072-.082.11-.122zM15 355c0-4.136 3.364-7.5 7.5-7.5h50c4.136 0 7.5 3.364 7.5 7.5s-3.364 7.5-7.5 7.5H47.597c-.032 0-.064-.005-.097-.005s-.064.005-.097.005H22.5c-4.136 0-7.5-3.364-7.5-7.5zm40 22.5h17.5c12.406 0 22.5-10.094 22.5-22.5s-10.094-22.5-22.5-22.5H55v-75h17.5c12.406 0 22.5-10.094 22.5-22.5s-10.094-22.5-22.5-22.5H55v-75h17.5c12.406 0 22.5-10.094 22.5-22.5S84.906 92.5 72.5 92.5H55V15h320v350h-82.5a7.499 7.499 0 0 0-7.5 7.5V455H55v-77.5zM15 235c0-4.136 3.364-7.5 7.5-7.5h50c4.136 0 7.5 3.364 7.5 7.5s-3.364 7.5-7.5 7.5h-50c-4.136 0-7.5-3.364-7.5-7.5zm0-120c0-4.136 3.364-7.5 7.5-7.5h50c4.136 0 7.5 3.364 7.5 7.5s-3.364 7.5-7.5 7.5h-50c-4.136 0-7.5-3.364-7.5-7.5zm285 265h64.394L300 444.394V380z"/></svg>